<mxfile host="app.diagrams.net" modified="2023-04-22T10:25:29.967Z" agent="Mozilla/5.0 (Windows NT 10.0; Win64; x64; rv:109.0) Gecko/20100101 Firefox/112.0" etag="TRc98b-9EMhSsG_mZlT-" version="21.1.8" type="device">
  <diagram name="Page-1" id="nMLjAwpMmZ2Pycbgtwmu">
    <mxGraphModel dx="678" dy="379" grid="1" gridSize="10" guides="1" tooltips="1" connect="1" arrows="1" fold="1" page="1" pageScale="1" pageWidth="850" pageHeight="1100" math="0" shadow="0">
      <root>
        <mxCell id="0" />
        <mxCell id="1" parent="0" />
        <mxCell id="TZzpDgTN9apd0BieV07n-6" value="Admin Class" style="html=1;whiteSpace=wrap;" vertex="1" parent="1">
          <mxGeometry x="540" y="240" width="110" height="50" as="geometry" />
        </mxCell>
        <mxCell id="TZzpDgTN9apd0BieV07n-19" style="edgeStyle=orthogonalEdgeStyle;rounded=0;orthogonalLoop=1;jettySize=auto;html=1;entryX=0.5;entryY=1;entryDx=0;entryDy=0;exitX=0.5;exitY=0;exitDx=0;exitDy=0;" edge="1" parent="1" source="TZzpDgTN9apd0BieV07n-7" target="TZzpDgTN9apd0BieV07n-14">
          <mxGeometry relative="1" as="geometry" />
        </mxCell>
        <mxCell id="TZzpDgTN9apd0BieV07n-7" value="User Class" style="html=1;whiteSpace=wrap;" vertex="1" parent="1">
          <mxGeometry x="610" y="380" width="110" height="50" as="geometry" />
        </mxCell>
        <mxCell id="TZzpDgTN9apd0BieV07n-8" value="Survey Class" style="html=1;whiteSpace=wrap;" vertex="1" parent="1">
          <mxGeometry x="380" y="240" width="110" height="50" as="geometry" />
        </mxCell>
        <mxCell id="TZzpDgTN9apd0BieV07n-18" style="edgeStyle=orthogonalEdgeStyle;rounded=0;orthogonalLoop=1;jettySize=auto;html=1;exitX=0.5;exitY=0;exitDx=0;exitDy=0;" edge="1" parent="1" source="TZzpDgTN9apd0BieV07n-11">
          <mxGeometry relative="1" as="geometry">
            <mxPoint x="440" y="340" as="targetPoint" />
            <Array as="points">
              <mxPoint x="515" y="340" />
            </Array>
          </mxGeometry>
        </mxCell>
        <mxCell id="TZzpDgTN9apd0BieV07n-11" value="Question Class" style="html=1;whiteSpace=wrap;" vertex="1" parent="1">
          <mxGeometry x="460" y="380" width="110" height="50" as="geometry" />
        </mxCell>
        <mxCell id="TZzpDgTN9apd0BieV07n-15" style="edgeStyle=orthogonalEdgeStyle;rounded=0;orthogonalLoop=1;jettySize=auto;html=1;entryX=0.5;entryY=1;entryDx=0;entryDy=0;exitX=0.5;exitY=0;exitDx=0;exitDy=0;" edge="1" parent="1" source="TZzpDgTN9apd0BieV07n-12" target="TZzpDgTN9apd0BieV07n-13">
          <mxGeometry relative="1" as="geometry" />
        </mxCell>
        <mxCell id="TZzpDgTN9apd0BieV07n-12" value="Votes Class" style="html=1;whiteSpace=wrap;" vertex="1" parent="1">
          <mxGeometry x="310" y="380" width="110" height="50" as="geometry" />
        </mxCell>
        <mxCell id="TZzpDgTN9apd0BieV07n-13" value="" style="rhombus;whiteSpace=wrap;html=1;" vertex="1" parent="1">
          <mxGeometry x="430" y="290" width="20" height="20" as="geometry" />
        </mxCell>
        <mxCell id="TZzpDgTN9apd0BieV07n-14" value="" style="rhombus;whiteSpace=wrap;html=1;" vertex="1" parent="1">
          <mxGeometry x="585" y="290" width="20" height="20" as="geometry" />
        </mxCell>
        <mxCell id="TZzpDgTN9apd0BieV07n-20" value="" style="endArrow=classic;html=1;rounded=0;exitX=0.647;exitY=-0.002;exitDx=0;exitDy=0;exitPerimeter=0;" edge="1" parent="1" source="TZzpDgTN9apd0BieV07n-11">
          <mxGeometry width="50" height="50" relative="1" as="geometry">
            <mxPoint x="520" y="380" as="sourcePoint" />
            <mxPoint x="600" y="340" as="targetPoint" />
            <Array as="points">
              <mxPoint x="530" y="340" />
              <mxPoint x="570" y="340" />
            </Array>
          </mxGeometry>
        </mxCell>
        <mxCell id="TZzpDgTN9apd0BieV07n-21" value="&lt;div&gt;Survey &lt;br&gt;&lt;/div&gt;&lt;div&gt;aggregates Votes&lt;br&gt;&lt;/div&gt;&lt;div&gt;and Questions&lt;br&gt;&lt;/div&gt;" style="text;strokeColor=none;align=center;fillColor=none;html=1;verticalAlign=middle;whiteSpace=wrap;rounded=0;" vertex="1" parent="1">
          <mxGeometry x="280" y="240" width="70" height="110" as="geometry" />
        </mxCell>
        <mxCell id="TZzpDgTN9apd0BieV07n-22" value="Admin &lt;br&gt;&lt;div&gt;aggregates User&lt;br&gt;&lt;/div&gt;&lt;div&gt;and &lt;br&gt;&lt;/div&gt;&lt;div&gt;Votes&lt;br&gt;&lt;/div&gt;" style="text;strokeColor=none;align=center;fillColor=none;html=1;verticalAlign=middle;whiteSpace=wrap;rounded=0;" vertex="1" parent="1">
          <mxGeometry x="680" y="240" width="70" height="110" as="geometry" />
        </mxCell>
      </root>
    </mxGraphModel>
  </diagram>
</mxfile>
